<?xml version="1.0" encoding="UTF-8"?><svg id="_レイヤー_2" xmlns="http://www.w3.org/2000/svg" viewBox="0 0 17.2 17.2"><defs><style>.cls-1{fill:#fff;stroke-width:0px;}</style></defs><g id="_レイヤー_1-2"><path class="cls-1" d="m13.41,8.14l-4.13-3.88c-.38-.36-.98-.36-1.37,0l-4.13,3.88c-.4.38-.42,1.01-.04,1.41.38.4,1.01.42,1.41.04l2.42-2.27v4.88c0,.55.45,1,1,1s1-.45,1-1v-4.93l2.47,2.32c.19.18.44.27.68.27.27,0,.53-.11.73-.32.38-.4.36-1.04-.04-1.41Z"/><path class="cls-1" d="m8.6,17.2C3.86,17.2,0,13.34,0,8.6S3.86,0,8.6,0s8.6,3.86,8.6,8.6-3.86,8.6-8.6,8.6Zm0-15.2c-3.64,0-6.6,2.96-6.6,6.6s2.96,6.6,6.6,6.6,6.6-2.96,6.6-6.6-2.96-6.6-6.6-6.6Z"/></g></svg>