<?xml version="1.0" encoding="UTF-8"?><svg id="_レイヤー_2" xmlns="http://www.w3.org/2000/svg" viewBox="0 0 24.17 29.85"><defs><style>.cls-1{fill:#251e1c;stroke-width:0px;}</style></defs><g id="_レイヤー_1-2"><path class="cls-1" d="m15.79,29.85H2.72c-1.5,0-2.72-1.22-2.72-2.72V8.65c0-1.5,1.22-2.72,2.72-2.72h13.07c1.5,0,2.72,1.22,2.72,2.72v18.48c0,1.5-1.22,2.72-2.72,2.72ZM2.72,7.93c-.4,0-.72.32-.72.72v18.48c0,.4.32.72.72.72h13.07c.4,0,.72-.32.72-.72V8.65c0-.4-.32-.72-.72-.72H2.72Z"/><path class="cls-1" d="m21.46,23.92h-.95c-.55,0-1-.45-1-1s.45-1,1-1h.95c.4,0,.72-.32.72-.72V2.72c0-.4-.32-.72-.72-.72h-13.07c-.4,0-.72.32-.72.72v1.21c0,.55-.45,1-1,1s-1-.45-1-1v-1.21c0-1.5,1.22-2.72,2.72-2.72h13.07c1.5,0,2.72,1.22,2.72,2.72v18.48c0,1.5-1.22,2.72-2.72,2.72Z"/></g></svg>