<?xml version="1.0" encoding="utf-8"?>
<!-- Generator: Adobe Illustrator 28.1.0, SVG Export Plug-In . SVG Version: 6.00 Build 0)  -->
<svg version="1.1" id="_レイヤー_2" xmlns="http://www.w3.org/2000/svg" xmlns:xlink="http://www.w3.org/1999/xlink" x="0px"
	 y="0px" viewBox="0 0 207.3 165" style="enable-background:new 0 0 207.3 165;" xml:space="preserve">
<style type="text/css">
	.st0{fill:#FFFFFF;stroke:#FFFFFF;}
	.st1{fill:#EB6DA6;}
</style>
<g id="_レイヤー_1-2">
	<g>
		<path class="st0" d="M90.8,13.5c1.8,0,3,1.2,2.4,3v92.2c0,28.8-17.8,45.8-47.8,45.8c-12.8,0-26.2-4-33.4-10
			c-1.2-1-1.8-2.2-1.4-3.6l9.8-27.4c0.6-1.8,2.4-1.8,3.8-0.8c3.8,3,8.8,5,15,5c7.6,0,12.6-5.2,13.4-13.2v-88c0-1.8,1.2-3,3-3H90.8z"
			/>
		<path class="st0" d="M184.2,68.1c3.4-1.2,6-4,7.4-7.7l12.3-27.5c2.8-5.6,0.7-12.6-5.1-16.3c-14.4-9.7-34.1-16-50.3-16
			c-17.4,0-32.4,5.1-43.3,14.8c-0.6,0.6-1.2,1.1-1.8,1.7c0.3-3-0.4-5.9-2.2-8.3C98.8,5.4,95,3.5,90.8,3.5H55.6c-7.3,0-13,5.7-13,13
			v87.4c-0.5,3.8-2.3,3.8-3.4,3.8c-3.5,0-6.4-1-8.8-2.8l-0.2-0.2l-0.2-0.1c-2.3-1.7-5-2.5-7.7-2.5c-5.2,0-9.6,3.2-11.4,8.2
			l-9.9,27.6L1,138.1c-1.5,5.1,0.2,10.4,4.6,14c9,7.5,24.6,12.3,39.8,12.3c20.2,0,36-6.8,46-19c0.9,1.4,2.1,2.6,3.5,3.7
			c11.7,9.3,31.5,15.3,50.5,15.3c36.2,0,61.4-22.4,61.4-54.4C206.8,89.2,196.3,76.4,184.2,68.1L184.2,68.1z"/>
		<path class="st0" d="M112,109.5c0.6-2,2-2.6,3.6-1.6c9.2,5.2,20.2,9,27.8,9.6c6.4,0,10.6-3,10.6-7.6c0-11.8-56.2-11.2-56.2-54.8
			c0-26.8,20.2-44.6,50.6-44.6c14.2,0,32.2,5.8,44.8,14.4c1.6,1,2.2,2.6,1.6,3.6l-12.6,28.2c-0.6,2-2,2.6-3.6,1.6
			c-9.8-5.6-21.2-9.8-28.2-10.4c-6.2,0-10.2,2.8-10.2,7.2c0,11.8,56.6,11,56.6,55c0,26.6-20.6,44.4-51.4,44.4
			c-16.8,0-34.4-5.2-44.4-13.2c-1.6-1.2-2.2-2.6-1.6-3.6C99.4,137.7,112,109.5,112,109.5z"/>
	</g>
</g>
<g id="_レイヤー_2-2">
	<g>
		<path class="st1" d="M90.8,13.5c1.8,0,3,1.2,2.4,3v92.2c0,28.8-17.8,45.8-47.8,45.8c-12.8,0-26.2-4-33.4-10
			c-1.2-1-1.8-2.2-1.4-3.6l9.8-27.4c0.6-1.8,2.4-1.8,3.8-0.8c3.8,3,8.8,5,15,5c7.6,0,12.6-5.2,13.4-13.2v-88c0-1.8,1.2-3,3-3H90.8z"
			/>
		<path class="st1" d="M112,109.5c0.6-2,2-2.6,3.6-1.6c9.2,5.2,20.2,9,27.8,9.6c6.4,0,10.6-3,10.6-7.6c0-11.8-56.2-11.2-56.2-54.8
			c0-26.8,20.2-44.6,50.6-44.6c14.2,0,32.2,5.8,44.8,14.4c1.6,1,2.2,2.6,1.6,3.6l-12.6,28.2c-0.6,2-2,2.6-3.6,1.6
			c-9.8-5.6-21.2-9.8-28.2-10.4c-6.2,0-10.2,2.8-10.2,7.2c0,11.8,56.6,11,56.6,55c0,26.6-20.6,44.4-51.4,44.4
			c-16.8,0-34.4-5.2-44.4-13.2c-1.6-1.2-2.2-2.6-1.6-3.6C99.4,137.7,112,109.5,112,109.5z"/>
	</g>
</g>
</svg>
